<?xml version="1.0" standalone="no"?><!DOCTYPE svg PUBLIC "-//W3C//DTD SVG 1.1//EN" "http://www.w3.org/Graphics/SVG/1.1/DTD/svg11.dtd"><svg t="1742800274100" class="icon" viewBox="0 0 1024 1024" version="1.1" xmlns="http://www.w3.org/2000/svg" p-id="942" width="256" height="256" xmlns:xlink="http://www.w3.org/1999/xlink"><path d="M495.469714 131.657143a170.276571 170.276571 0 0 1 152.078629 92.189257l0.760686 2.223543h2.194285c94.032457 5.149257 168.228571 81.861486 168.228572 173.319314 0 89.994971-68.315429 165.946514-155.735772 173.348572h-3.6864v53.101714c0 29.4912 24.254171 53.833143 53.6576 53.833143h19.836343c6.612114 0 12.4928-4.417829 15.418514-10.327772a81.334857 81.334857 0 0 1 76.419658-51.638857c22.762057 0 44.061257 9.596343 59.509028 25.834057 15.418514 16.208457 23.522743 37.624686 22.762057 60.474515a82.505143 82.505143 0 0 1-83.031771 80.398628c-33.792 0-63.8976-20.655543-77.121829-52.370286a16.969143 16.969143 0 0 0-15.447771-10.327771h-19.836343a95.963429 95.963429 0 0 1-95.524571-95.875657v-42.042514a10.064457 10.064457 0 0 0-10.269258-10.327772h-62.464a10.064457 10.064457 0 0 0-10.269257 10.327772v161.499428c0 6.670629 4.388571 13.312 10.269257 15.506286a82.592914 82.592914 0 0 1 52.165486 77.443657 83.002514 83.002514 0 0 1-80.0768 83.3536h-2.925714c-45.553371 0-82.300343-36.864-83.031772-82.622171 0-33.938286 19.836343-64.892343 51.434058-77.443658a18.197943 18.197943 0 0 0 5.383314-3.627885 16.442514 16.442514 0 0 0 4.885943-11.849143v-162.260114a10.064457 10.064457 0 0 0-10.269257-10.327772h-62.464c-5.851429 0-10.269257 4.417829-10.269258 10.327772v42.042514c0 52.370286-42.627657 95.875657-95.524571 95.875657h-19.836343c-6.612114 0-12.4928 4.417829-15.447771 10.327771a82.271086 82.271086 0 0 1-77.151086 52.370286 82.973257 82.973257 0 0 1-83.002514-80.398628 82.973257 82.973257 0 0 1 22.762057-60.474515 81.7152 81.7152 0 0 1 58.806857-25.834057c34.523429 0 64.658286 20.655543 77.121829 51.638857 2.925714 6.641371 8.8064 10.327771 15.418514 10.327772h19.8656a54.037943 54.037943 0 0 0 53.628343-53.833143V573.44h-4.388572C276.48 569.051429 210.358857 504.861257 210.358857 427.4176c0-64.892343 45.553371-120.949029 113.166629-139.381029l2.925714-0.760685v-2.925715C333.092571 198.743771 407.259429 131.657143 495.469714 131.657143z m-160.914285 196.1984a120.246857 120.246857 0 0 0-60.269715 38.326857 95.729371 95.729371 0 0 0-22.762057 61.2352c0 25.834057 11.029943 50.907429 30.866286 70.070857a121.856 121.856 0 0 0 78.613943 33.938286h288.036571c70.509714 0 127.853714-59.743086 127.853714-132.768914 0-33.938286-13.253486-65.653029-37.4784-90.697143a140.843886 140.843886 0 0 0-91.106742-40.579657l-26.448458-1.462858-11.761371-23.639771c-10.298514-20.626286-26.448457-37.595429-46.2848-50.146743a131.598629 131.598629 0 0 0-69.076114-19.163428c-33.060571 0-63.926857 11.790629-88.181029 33.938285a120.656457 120.656457 0 0 0-39.672686 80.369372l-2.194285 31.714743-30.134857 8.864914zM199.4752 743.804343a42.305829 42.305829 0 1 0 0-84.640914 42.305829 42.305829 0 0 0 0 84.640914z m354.830629 96.168228a42.305829 42.305829 0 1 1-84.640915 0 42.305829 42.305829 0 0 1 84.640915 0z m271.506285-97.28a42.305829 42.305829 0 1 0 0-84.640914 42.305829 42.305829 0 0 0 0 84.640914z" fill="#1296db" p-id="943"></path><path d="M495.469714 131.657143a170.276571 170.276571 0 0 1 152.078629 92.189257l0.760686 2.223543h2.194285c94.032457 5.149257 168.228571 81.861486 168.228572 173.319314 0 89.994971-68.315429 165.946514-155.735772 173.348572h-3.6864v53.101714c0 29.4912 24.254171 53.833143 53.6576 53.833143h19.836343c6.612114 0 12.4928-4.417829 15.418514-10.327772a81.334857 81.334857 0 0 1 76.419658-51.638857c22.762057 0 44.061257 9.596343 59.509028 25.834057 15.418514 16.208457 23.522743 37.624686 22.762057 60.474515a82.505143 82.505143 0 0 1-83.031771 80.398628c-33.792 0-63.8976-20.655543-77.121829-52.370286a16.969143 16.969143 0 0 0-15.447771-10.327771h-19.836343a95.963429 95.963429 0 0 1-95.524571-95.875657v-42.042514a10.064457 10.064457 0 0 0-10.269258-10.327772h-62.464a10.064457 10.064457 0 0 0-10.269257 10.327772v161.499428c0 6.670629 4.388571 13.312 10.269257 15.506286a82.592914 82.592914 0 0 1 52.165486 77.443657 83.002514 83.002514 0 0 1-80.0768 83.3536h-2.925714c-45.553371 0-82.300343-36.864-83.031772-82.622171 0-33.938286 19.836343-64.892343 51.434058-77.443658a18.197943 18.197943 0 0 0 5.383314-3.627885 16.442514 16.442514 0 0 0 4.885943-11.849143v-162.260114a10.064457 10.064457 0 0 0-10.269257-10.327772h-62.464c-5.851429 0-10.269257 4.417829-10.269258 10.327772v42.042514c0 52.370286-42.627657 95.875657-95.524571 95.875657h-19.836343c-6.612114 0-12.4928 4.417829-15.447771 10.327771a82.271086 82.271086 0 0 1-77.151086 52.370286 82.973257 82.973257 0 0 1-83.002514-80.398628 82.973257 82.973257 0 0 1 22.762057-60.474515 81.7152 81.7152 0 0 1 58.806857-25.834057c34.523429 0 64.658286 20.655543 77.121829 51.638857 2.925714 6.641371 8.8064 10.327771 15.418514 10.327772h19.8656a54.037943 54.037943 0 0 0 53.628343-53.833143V573.44h-4.388572C276.48 569.051429 210.358857 504.861257 210.358857 427.4176c0-64.892343 45.553371-120.949029 113.166629-139.381029l2.925714-0.760685v-2.925715C333.092571 198.743771 407.259429 131.657143 495.469714 131.657143z m-160.914285 196.1984a120.246857 120.246857 0 0 0-60.269715 38.326857 95.729371 95.729371 0 0 0-22.762057 61.2352c0 25.834057 11.029943 50.907429 30.866286 70.070857a121.856 121.856 0 0 0 78.613943 33.938286h288.036571c70.509714 0 127.853714-59.743086 127.853714-132.768914 0-33.938286-13.253486-65.653029-37.4784-90.697143a140.843886 140.843886 0 0 0-91.106742-40.579657l-26.448458-1.462858-11.761371-23.639771c-10.298514-20.626286-26.448457-37.595429-46.2848-50.146743a131.598629 131.598629 0 0 0-69.076114-19.163428c-33.060571 0-63.926857 11.790629-88.181029 33.938285a120.656457 120.656457 0 0 0-39.672686 80.369372l-2.194285 31.714743-30.134857 8.864914zM199.4752 743.804343a42.305829 42.305829 0 1 0 0-84.640914 42.305829 42.305829 0 0 0 0 84.640914z m354.830629 96.168228a42.305829 42.305829 0 1 1-84.640915 0 42.305829 42.305829 0 0 1 84.640915 0z m271.506285-97.28a42.305829 42.305829 0 1 0 0-84.640914 42.305829 42.305829 0 0 0 0 84.640914z" fill="#1296db" p-id="944"></path></svg>